<?xml version="1.0" encoding="UTF-8"?>
<svg id="Layer_1" xmlns="http://www.w3.org/2000/svg" version="1.1" viewBox="-319 -398 1275 1275">
  <!-- Generator: Adobe Illustrator 30.5.1, SVG Export Plug-In . SVG Version: 2.1.4 Build 3)  -->
  <defs>
    <style>
      .st0 {
        fill: #cb2124;
      }

      .st1 {
        fill: #434342;
      }

      .st2 {
        fill: #cb2022;
      }

      .st3 {
        fill: #0e8e42;
      }

      .st4 {
        fill: #ca2123;
      }

      .st5 {
        fill: #0d53a9;
      }

      .st6 {
        fill: #0f8e42;
      }

      .st7 {
        fill: #0e53a9;
      }
    </style>
  </defs>
  <rect class="st0" x="379.17" y="230.62" width="120.43" height="29.11" transform="translate(194.03 684.45) rotate(-89.98)"/>
  <path class="st2" d="M440.02,172.2c-10.4.26-16.91-6.59-17.22-15.87-.35-10.38,7.04-18.3,17.65-18.11,8.13.15,14.45,5.01,16.08,13.2,1,5.03.23,10.56-2.98,14.57-2.92,3.65-7.82,6.07-13.51,6.22Z"/>
  <path class="st4" d="M578,272.71l13.14,17.43c-19.13,16.81-48.69,21.32-71.57,15.33-22.47-5.89-38.72-23.32-42.86-46.2-2.58-14.24-1.62-28.15,4.07-41.35,12.7-29.47,41.78-39.15,72.69-34.2,20.95,3.35,36.55,18.65,41.29,39.33,2.19,9.55,2.12,19.12,1.26,29.03l-90.22.14c.24,14.74,9.34,26.95,23.47,30.57,16.75,4.3,34.21,1.03,48.72-10.09ZM567.84,232.83c.14-17.69-13.27-29.54-30.32-29.03-16.57.49-30.35,11.62-31.46,28.97l61.78.06Z"/>
  <path class="st6" d="M424.5,456.79c-8.93-12.92-8.99-30.64-.14-43.29,13.95-19.95,48.16-20.68,72.31-15.23.88-8.86-.3-17.16-5.7-23.34-4.54-5.2-11.65-7.02-18.53-7.42-13.23-.15-25.1,4.14-36.15,12.05l-12.09-18.12c13.57-11.86,30.36-16.74,48.24-16.87,11.61-.09,22.84,1.06,32.92,7.13,13.44,8.08,20.6,22.5,20.62,38.36l.1,81.11-27.51.14-.3-13.51c-11.4,11.71-25.69,16.65-41.76,15.35-12.42-1.01-24.38-5.3-32.01-16.34ZM496.61,431.62l.46-12.93c-20.12-6.35-50.04-5.5-50.13,14.29-.04,7.93,4.15,14.29,12.26,16.86,17.88,5.66,36.92-4.53,37.4-18.21Z"/>
  <path class="st3" d="M607.93,471.18c-23.26,5.54-46.71.48-65.51-15.58l14.27-17.99c7.79,5.81,15.39,10.94,24.91,12.79,13.74,2.67,27.26-.7,27.91-12.48.29-5.29-3.16-10.78-8.85-12.81l-26.41-9.45c-8.69-3.11-16.87-8.15-21.62-16.32-10.91-18.77-2.13-42.44,18.2-50.53,20.8-8.28,44.48-4.56,62.52,9.71l-12.95,18.24c-10.17-7.24-21.14-11.59-33.16-9.5-6.92,1.2-12.84,6.6-11.31,13.95.91,4.39,5.48,8.38,9.79,9.97l26.33,9.76c22.25,8.25,30.74,29.85,21.25,50.46-4.25,9.23-13.93,17.04-25.38,19.77Z"/>
  <path class="st5" d="M516.16,93.17l12.64,18.1c-19.38,17.54-50.55,21.67-74.21,14.09-34.98-11.21-45.61-49.11-36.72-82.06C425.36,15.52,449.42-.11,477.38,0c27.41.11,49.97,16.19,55.02,43.95,1.7,9.32,2.16,19.22,1.5,28.98l-88.61-.11c.23,16.11,11.83,29.55,28.12,31.8,15.43,2.13,29.8-1.34,42.75-11.44ZM445.62,52.52h59.82c-.48-9.06-3.19-17.86-10.47-23.67-11.49-9.17-28.74-8.38-39.6,1.54-6.29,5.75-9.02,13.77-9.76,22.13Z"/>
  <path class="st7" d="M583.72,126.01l-28.64.35V3.01s27.26.01,27.26.01l.52,17.82c9.39-15.42,25.08-22.46,42.12-18.75l-.08,30.75c-9.18-3.09-17.82-3.1-26.07.14-9.38,3.97-13.43,12.57-15,22.68l-.12,70.35Z"/>
  <path class="st1" d="M205.98,475.13c-70.69,11.46-140.67-7.79-179.66-70.54-14.86-23.91-22.91-50.56-25.25-78.65-1.27-15.28-1.51-29.87-.16-45.19,6.15-70.02,46.27-132.95,112.56-159.27,58.09-21.09,137.33-15.09,183.39,30.58V.47s86.5.01,86.5.01l-.3,354.91.13,117.07-89.73.03-.13-44.34c-23.34,24.98-53.7,40.57-87.36,46.97ZM293.94,318.08c1.37-18.12,1.66-36.01,0-54.08-1.34-14.5-5.45-27.91-12.58-40.46-21.16-37.25-67.82-48.22-108.55-39.66-74.96,15.76-101.02,113.18-69.63,176.79,21.18,42.93,65.66,57.28,111.51,49.1,45.59-8.13,75.77-45.87,79.25-91.69Z"/>
</svg>